<svg
          xmlns="http://www.w3.org/2000/svg"
          fill="none"
          viewBox="0 0 33.504 33.504"
          width="33.504"
          height="33.504"
        >
          <path
            fill="#FF4800"
            d="M8.33417 0H16.6683C18.9693 0 20.8364 1.86714 20.8364 4.16809V8.33817C20.8364 10.6391 18.9693 12.5063 16.6683 12.5063H0V8.33817C0 3.73029 3.73029 0 8.33417 0Z"
          />
          <path
            fill="#FF4800"
            d="M0 16.6743H16.6683C18.9693 16.6743 20.8364 18.5415 20.8364 20.8424V29.1806C20.8364 31.4815 18.9693 33.3487 16.6683 33.3487H8.33417C3.73429 33.3487 0 29.6144 0 25.0125V16.6743Z"
          />
          <path
            fill="#FF4800"
            d="M29.1705 16.6743H33.3366V25.0125C33.3366 29.6144 29.6023 33.3487 25.0024 33.3487V20.8424C25.0024 18.5375 26.8656 16.6743 29.1705 16.6743Z"
          />
          <path
            fill="#FF4800"
            d="M25.0024 0C29.6023 0 33.3366 3.73629 33.3366 8.33817V12.5063H29.1705C26.8696 12.5063 25.0024 10.6391 25.0024 8.33817V0Z"
          />
        </svg>